<svg width="46" height="47" viewBox="0 0 46 47" fill="none" xmlns="http://www.w3.org/2000/svg">
<path d="M21 35C21 33.8954 21.8954 33 23 33C24.1046 33 25 33.8954 25 35V45C25 46.1046 24.1046 47 23 47C21.8954 47 21 46.1046 21 45V35Z" fill="#008080" fill-opacity="0.6"/>
<path d="M34 26C32.8954 26 32 25.1046 32 24C32 22.8954 32.8954 22 34 22H44C45.1046 22 46 22.8954 46 24C46 25.1046 45.1046 26 44 26H34Z" fill="#008080" fill-opacity="0.8"/>
<path d="M2 26C0.895431 26 4.82823e-08 25.1046 0 24C-4.82822e-08 22.8954 0.895431 22 2 22H12C13.1046 22 14 22.8954 14 24C14 25.1046 13.1046 26 12 26H2Z" fill="#008080" fill-opacity="0.4"/>
<path d="M5.41421 8.24264C4.63317 7.46159 4.63317 6.19527 5.41421 5.41422C6.19526 4.63317 7.46159 4.63317 8.24264 5.41422L15.3137 12.4853C16.0948 13.2663 16.0948 14.5327 15.3137 15.3137C14.5327 16.0948 13.2663 16.0948 12.4853 15.3137L5.41421 8.24264Z" fill="#008080" fill-opacity="0.3"/>
<path d="M30.4142 34.2426C29.6332 33.4616 29.6332 32.1953 30.4142 31.4142C31.1953 30.6332 32.4616 30.6332 33.2426 31.4142L40.3137 38.4853C41.0948 39.2663 41.0948 40.5327 40.3137 41.3137C39.5327 42.0948 38.2663 42.0948 37.4853 41.3137L30.4142 34.2426Z" fill="#008080" fill-opacity="0.7"/>
<path d="M12.4853 31.4142C13.2663 30.6332 14.5327 30.6332 15.3137 31.4142C16.0948 32.1953 16.0948 33.4616 15.3137 34.2426L8.24264 41.3137C7.46159 42.0948 6.19526 42.0948 5.41421 41.3137C4.63316 40.5327 4.63316 39.2663 5.41421 38.4853L12.4853 31.4142Z" fill="#008080" fill-opacity="0.5"/>
<path d="M37.4853 5.41421C38.2663 4.63316 39.5327 4.63316 40.3137 5.41421C41.0948 6.19526 41.0948 7.46159 40.3137 8.24264L33.2427 15.3137C32.4616 16.0948 31.1953 16.0948 30.4142 15.3137C29.6332 14.5327 29.6332 13.2663 30.4142 12.4853L37.4853 5.41421Z" fill="#008080" fill-opacity="0.9"/>
<path d="M25 12C25 13.1046 24.1046 14 23 14C21.8954 14 21 13.1046 21 12L21 2C21 0.895431 21.8954 9.65645e-08 23 0C24.1046 -9.65645e-08 25 0.89543 25 2L25 12Z" fill="#008080"/>
</svg>
